<svg width="190" height="48" viewBox="0 0 190 48" fill="none" xmlns="http://www.w3.org/2000/svg">
<path d="M0 5.5C0 2.73858 2.23858 0.5 5 0.5H185C187.761 0.5 190 2.73858 190 5.5V42.5C190 45.2614 187.761 47.5 185 47.5H5C2.23858 47.5 0 45.2614 0 42.5V5.5Z" fill="#FF6525"/>
<path d="M14.4182 17.864V30.5H11.3402V17.864H14.4182ZM21.5268 28.124H25.5588V30.5H18.4488V17.864H21.5268V28.124ZM31.9049 20.33V22.886H36.0269V25.262H31.9049V28.034H36.5669V30.5H28.8269V17.864H36.5669V20.33H31.9049ZM48.2312 28.268H43.5152L42.7592 30.5H39.5372L44.1092 17.864H47.6732L52.2452 30.5H48.9872L48.2312 28.268ZM47.4392 25.892L45.8732 21.266L44.3252 25.892H47.4392Z" fill="white"/>
<path d="M71.9952 17.864V30.5H68.9172V25.298H64.1292V30.5H61.0512V17.864H64.1292V22.814H68.9172V17.864H71.9952ZM83.8832 28.268H79.1672L78.4112 30.5H75.1892L79.7612 17.864H83.3252L87.8972 30.5H84.6392L83.8832 28.268ZM83.0912 25.892L81.5252 21.266L79.9772 25.892H83.0912ZM94.1667 17.864V30.5H91.0887V17.864H94.1667ZM104.641 30.5L102.013 25.73H101.275V30.5H98.1973V17.864H103.363C104.359 17.864 105.205 18.038 105.901 18.386C106.609 18.734 107.137 19.214 107.485 19.826C107.833 20.426 108.007 21.098 108.007 21.842C108.007 22.682 107.767 23.432 107.287 24.092C106.819 24.752 106.123 25.22 105.199 25.496L108.115 30.5H104.641ZM101.275 23.552H103.183C103.747 23.552 104.167 23.414 104.443 23.138C104.731 22.862 104.875 22.472 104.875 21.968C104.875 21.488 104.731 21.11 104.443 20.834C104.167 20.558 103.747 20.42 103.183 20.42H101.275V23.552ZM111.217 24.164C111.217 22.916 111.487 21.806 112.027 20.834C112.567 19.85 113.317 19.088 114.277 18.548C115.249 17.996 116.347 17.72 117.571 17.72C119.071 17.72 120.355 18.116 121.423 18.908C122.491 19.7 123.205 20.78 123.565 22.148H120.181C119.929 21.62 119.569 21.218 119.101 20.942C118.645 20.666 118.123 20.528 117.535 20.528C116.587 20.528 115.819 20.858 115.231 21.518C114.643 22.178 114.349 23.06 114.349 24.164C114.349 25.268 114.643 26.15 115.231 26.81C115.819 27.47 116.587 27.8 117.535 27.8C118.123 27.8 118.645 27.662 119.101 27.386C119.569 27.11 119.929 26.708 120.181 26.18H123.565C123.205 27.548 122.491 28.628 121.423 29.42C120.355 30.2 119.071 30.59 117.571 30.59C116.347 30.59 115.249 30.32 114.277 29.78C113.317 29.228 112.567 28.466 112.027 27.494C111.487 26.522 111.217 25.412 111.217 24.164ZM130.328 28.124H134.36V30.5H127.25V17.864H130.328V28.124ZM140.707 17.864V30.5H137.629V17.864H140.707ZM156.041 30.5H152.963L147.815 22.706V30.5H144.737V17.864H147.815L152.963 25.694V17.864H156.041V30.5ZM163.15 17.864V30.5H160.072V17.864H163.15ZM166.659 24.164C166.659 22.916 166.929 21.806 167.469 20.834C168.009 19.85 168.759 19.088 169.719 18.548C170.691 17.996 171.789 17.72 173.013 17.72C174.513 17.72 175.797 18.116 176.865 18.908C177.933 19.7 178.647 20.78 179.007 22.148H175.623C175.371 21.62 175.011 21.218 174.543 20.942C174.087 20.666 173.565 20.528 172.977 20.528C172.029 20.528 171.261 20.858 170.673 21.518C170.085 22.178 169.791 23.06 169.791 24.164C169.791 25.268 170.085 26.15 170.673 26.81C171.261 27.47 172.029 27.8 172.977 27.8C173.565 27.8 174.087 27.662 174.543 27.386C175.011 27.11 175.371 26.708 175.623 26.18H179.007C178.647 27.548 177.933 28.628 176.865 29.42C175.797 30.2 174.513 30.59 173.013 30.59C171.789 30.59 170.691 30.32 169.719 29.78C168.759 29.228 168.009 28.466 167.469 27.494C166.929 26.522 166.659 25.412 166.659 24.164Z" fill="#0B5498"/>
</svg>
